<svg aria-hidden="true" style="width:0;height:0;position:absolute;overflow:hidden" xmlns="http://www.w3.org/2000/svg"><defs><symbol id="icon-appleinc" viewBox="0 0 32 32"><path d="M24.734 17.003c-.04-4.053 3.305-5.996 3.454-6.093-1.88-2.751-4.808-3.127-5.851-3.171-2.492-.252-4.862 1.467-6.127 1.467-1.261 0-3.213-1.43-5.28-1.392-2.716.04-5.221 1.579-6.619 4.012-2.822 4.897-.723 12.151 2.028 16.123 1.344 1.944 2.947 4.127 5.051 4.049 2.026-.081 2.793-1.311 5.242-1.311s3.138 1.311 5.283 1.271c2.18-.041 3.562-1.981 4.897-3.931 1.543-2.255 2.179-4.439 2.216-4.551-.048-.022-4.252-1.632-4.294-6.473zM20.705 5.11C21.822 3.755 22.576 1.875 22.37 0c-1.609.066-3.559 1.072-4.713 2.423-1.036 1.199-1.942 3.113-1.699 4.951 1.796.14 3.629-.913 4.747-2.264z"/></symbol><symbol id="icon-android" viewBox="0 0 32 32"><path d="M28 12c-1.1 0-2 .9-2 2v8c0 1.1.9 2 2 2s2-.9 2-2v-8c0-1.1-.9-2-2-2zM4 12c-1.1 0-2 .9-2 2v8c0 1.1.9 2 2 2s2-.9 2-2v-8c0-1.1-.9-2-2-2zm3 11a3 3 0 0 0 3 3v4c0 1.1.9 2 2 2s2-.9 2-2v-4h4v4c0 1.1.9 2 2 2s2-.9 2-2v-4a3 3 0 0 0 3-3V12H7v11zM24.944 10a8.994 8.994 0 0 0-4.051-6.551l1.001-2.001a1 1 0 0 0-1.789-.895l-1.004 2.009-.261-.104C17.947 2.161 16.992 2 16 2s-1.947.161-2.84.458l-.261.104L11.895.553a1 1 0 0 0-1.789.895l1.001 2.001A8.996 8.996 0 0 0 7.056 10v1H25v-1h-.056zM13 8a1 1 0 0 1-.002-2h.005a1 1 0 0 1-.002 2zm6 0a1 1 0 0 1-.002-2h.005a1 1 0 0 1-.002 2z"/><symbol id="icon-linked" viewBox="0 0 32 32"><path d="M7.409 31.111H.959V10.34h6.45v20.771zM4.18 7.507C2.118 7.507.444 5.798.444 3.736a3.735 3.735 0 0 1 7.47 0c0 2.062-1.673 3.771-3.736 3.771zm27.369 23.604h-6.436V21c0-2.41-.049-5.5-3.353-5.5-3.353 0-3.868 2.618-3.868 5.327v10.284h-6.443V10.34h6.186v2.833h.09c.861-1.632 2.964-3.354 6.102-3.354 6.528 0 7.728 4.299 7.728 9.882v11.41h-.006z"/></symbol><symbol id="icon-facebook" viewBox="0 0 18 32"><path d="M17.778 1.185h-4.444a7.41 7.41 0 0 0-7.408 7.408v4.444H1.482v5.926h4.444v11.852h5.926V18.963h4.444l1.482-5.926h-5.926V8.593a1.482 1.482 0 0 1 1.482-1.482h4.444V1.185z"/></symbol><symbol id="icon-twiter" viewBox="0 0 38 32"><path d="M38.045 1.065a17.969 17.969 0 0 1-5.176 2.522 7.38 7.38 0 0 0-8.206-2.053 7.38 7.38 0 0 0-4.751 6.999v1.649A17.57 17.57 0 0 1 5.076 2.715s-6.594 14.836 8.242 21.43a19.185 19.185 0 0 1-11.539 3.297c14.836 8.242 32.97 0 32.97-18.958a7.477 7.477 0 0 0-.132-1.368 12.72 12.72 0 0 0 3.429-6.05z"/></symbol></symbol></defs></svg>