<svg aria-hidden="true" style="width:0;height:0;position:absolute;overflow:hidden" xmlns="http://www.w3.org/2000/svg"><defs><symbol id="icon-linked" viewBox="0 0 32 32"><path d="M7.409 31.111H.959V10.34h6.45v20.771zM4.18 7.507C2.118 7.507.444 5.798.444 3.736a3.735 3.735 0 0 1 7.47 0c0 2.062-1.673 3.771-3.736 3.771zm27.369 23.604h-6.436V21c0-2.41-.049-5.5-3.353-5.5-3.353 0-3.868 2.618-3.868 5.327v10.284h-6.443V10.34h6.186v2.833h.09c.861-1.632 2.964-3.354 6.102-3.354 6.528 0 7.728 4.299 7.728 9.882v11.41h-.006z"/></symbol><symbol id="icon-facebook" viewBox="0 0 18 32"><path d="M17.778 1.185h-4.444a7.41 7.41 0 0 0-7.408 7.408v4.444H1.482v5.926h4.444v11.852h5.926V18.963h4.444l1.482-5.926h-5.926V8.593a1.482 1.482 0 0 1 1.482-1.482h4.444V1.185z"/></symbol><symbol id="icon-twiter" viewBox="0 0 38 32"><path d="M38.045 1.065a17.969 17.969 0 0 1-5.176 2.522 7.38 7.38 0 0 0-8.206-2.053 7.38 7.38 0 0 0-4.751 6.999v1.649A17.57 17.57 0 0 1 5.076 2.715s-6.594 14.836 8.242 21.43a19.185 19.185 0 0 1-11.539 3.297c14.836 8.242 32.97 0 32.97-18.958a7.477 7.477 0 0 0-.132-1.368 12.72 12.72 0 0 0 3.429-6.05z"/></symbol></defs></svg>